#!OML:ASF C:\Vicon Data\Big\jianyuan-12\jianyuan\Session 1\Capture.male.ASF
:FULLY-SPECIFIED
:DEGREES
42
root -8.591411 17.437064 -20.258760 3.916894 -3.259961 5.785410
lowerback -9.909570 -3.157170 -3.733733 
upperback 1.790600 -3.780674 0.498274 
thorax 7.743774 -2.022419 1.995714 
lowerneck 1.544331 -10.728507 -6.678849 
upperneck -0.060214 -14.408527 13.883542 
head 1.250253 -7.164441 4.947056 
rclavicle 0.000000 0.000000 
rhumerus -41.595924 -34.938026 -71.999411 
rradius 30.210041 
rwrist 42.644547 
rhand -19.471432 -5.205773 
rfingers 0.000000 
rthumb 6.850069 -35.074939 
lclavicle 0.000000 0.000000 
lhumerus -29.473164 22.705219 81.402403 
lradius 30.989584 
lwrist -43.938108 
lhand -9.561074 4.408616 
lfingers 0.000000 
lthumb 16.406293 33.734811 
rfemur -24.346693 -2.377488 23.913867 
rtibia 32.552452 
rfoot -22.165606 -9.523420 
rtoes 9.821268 
lfemur -14.083380 8.091380 -19.890583 
ltibia 64.782198 
lfoot -1.103390 7.352255 
ltoes -26.453350 
43
root -8.611649 17.436759 -20.196270 3.833715 -3.230554 5.754005
lowerback -9.760344 -3.160156 -3.731648 
upperback 1.833350 -3.790128 0.490365 
thorax 7.703899 -2.027324 1.990823 
lowerneck 1.573736 -10.748012 -6.649922 
upperneck -0.204454 -14.420790 13.995625 
head 1.211126 -7.174581 4.981034 
rclavicle 0.000000 0.000000 
rhumerus -41.070214 -34.498872 -72.662143 
rradius 30.556742 
rwrist 41.945219 
rhand -19.415288 -5.377967 
rfingers 0.000000 
rthumb 6.904291 -35.245412 
lclavicle 0.000000 0.000000 
lhumerus -29.789373 23.183714 81.022935 
lradius 30.650319 
lwrist -44.754248 
lhand -9.456707 4.276914 
lfingers 0.000000 
lthumb 16.506730 33.594767 
rfemur -23.961370 -2.269088 23.993395 
rtibia 32.502938 
rfoot -22.406867 -9.585736 
rtoes 9.830155 
lfemur -14.901685 7.945404 -19.832984 
ltibia 65.632312 
lfoot -1.425975 7.367523 
ltoes -25.933921 
44
root -8.633438 17.437076 -20.128459 3.698699 -3.438282 5.660433
lowerback -9.624734 -3.071238 -3.660534 
upperback 1.892327 -3.684554 0.480356 
thorax 7.676313 -1.973362 1.963570 
lowerneck 1.625089 -10.780504 -6.545727 
upperneck -0.347586 -14.448604 14.007201 
head 1.157119 -7.193995 4.975400 
rclavicle 0.000000 0.000000 
rhumerus -40.578520 -33.943314 -73.352989 
rradius 30.879680 
rwrist 41.247352 
rhand -19.370263 -5.658305 
rfingers 0.000000 
rthumb 6.947762 -35.524295 
lclavicle 0.000000 0.000000 
lhumerus -30.135386 23.609127 80.621527 
lradius 30.323912 
lwrist -45.633151 
lhand -9.258240 4.166016 
lfingers 0.000000 
lthumb 16.697807 33.467868 
rfemur -23.512696 -2.037925 24.133882 
rtibia 32.487207 
rfoot -22.669809 -9.494647 
rtoes 9.888451 
lfemur -15.592259 7.965574 -19.709554 
ltibia 66.408507 
lfoot -1.827754 7.428664 
ltoes -25.592659 
45
root -8.653852 17.438718 -20.058243 3.569581 -3.674509 5.609296
lowerback -9.534598 -2.980992 -3.621375 
upperback 1.958372 -3.570757 0.466076 
thorax 7.683955 -1.917009 1.948409 
lowerneck 1.688350 -10.801598 -6.501477 
upperneck -0.500513 -14.462030 14.078586 
head 1.105813 -7.206863 4.997699 
rclavicle 0.000000 0.000000 
rhumerus -40.110005 -33.599993 -73.865408 
rradius 31.111464 
rwrist 40.697604 
rhand -19.322983 -5.176054 
rfingers 0.000000 
rthumb 6.993390 -35.040539 
lclavicle 0.000000 0.000000 
lhumerus -30.487678 24.043140 80.232824 
lradius 30.019175 
lwrist -46.492113 
lhand -9.093535 4.127343 
lfingers 0.000000 
lthumb 16.856373 33.415721 
rfemur -23.068294 -1.889530 24.235143 
rtibia 32.464016 
rfoot -22.862078 -9.330440 
rtoes 9.778041 
lfemur -16.240029 7.934140 -19.665217 
ltibia 67.096130 
lfoot -2.216319 7.549108 
ltoes -24.943413 
46
root -8.667508 17.438568 -19.992068 3.449217 -3.694715 5.685133
lowerback -9.401945 -2.958690 -3.655117 
upperback 2.018232 -3.537104 0.409982 
thorax 7.668123 -1.901491 1.918362 
lowerneck 1.708157 -10.841753 -6.453267 
upperneck -0.641631 -14.500574 14.179152 
head 1.069691 -7.229903 5.023637 
rclavicle 0.000000 0.000000 
rhumerus -39.665974 -33.233792 -74.343537 
rradius 31.382717 
rwrist 40.138386 
rhand -19.349290 -4.671568 
rfingers 0.000000 
rthumb 6.967953 -34.536884 
lclavicle 0.000000 0.000000 
lhumerus -30.800091 24.583403 79.814506 
lradius 29.685315 
lwrist -47.321320 
lhand -9.037032 4.062092 
lfingers 0.000000 
lthumb 16.910777 33.345833 
rfemur -22.675601 -1.995678 24.188922 
rtibia 32.461522 
rfoot -23.049469 -9.123068 
rtoes 9.656469 
lfemur -16.939131 7.682236 -19.790687 
ltibia 67.711939 
lfoot -2.494532 7.744834 
ltoes -24.923404 
